<svg width="180" height="180" viewBox="0 0 180 180" fill="none" xmlns="http://www.w3.org/2000/svg">
  <style>
    @media (prefers-color-scheme: light) {
      .bg { fill: #0f172a; }
      .fg { fill: #38bdf8; }
      .fg2 { fill: #e2e8f0; }
    }
    @media (prefers-color-scheme: dark) {
      .bg { fill: #0f172a; }
      .fg { fill: #38bdf8; }
      .fg2 { fill: #e2e8f0; }
    }
  </style>
  <rect class="bg" width="180" height="180" rx="37"/>
  <!-- Shield outline -->
  <path class="fg" d="M90 22L38 48v42c0 38.5 22.2 62.5 52 68 29.8-5.5 52-29.5 52-68V48L90 22zm0 14.5l40 20v33.5c0 31-17.8 50.5-40 55.5-22.2-5-40-24.5-40-55.5V56.5l40-20z"/>
  <!-- P letterform -->
  <path class="fg2" d="M72 62h26c13.8 0 25 11.2 25 25s-11.2 25-25 25H86v20H72V62zm14 14v22h12c6.1 0 11-4.9 11-11s-4.9-11-11-11H86z"/>
</svg>
